<svg id="SvgjsSvg1006" width="735.9999847412109" height="455.8522720336914" xmlns="http://www.w3.org/2000/svg" version="1.1" xmlns:xlink="http://www.w3.org/1999/xlink" xmlns:svgjs="http://svgjs.com/svgjs"><defs id="SvgjsDefs1007"><marker id="SvgjsMarker1038" markerWidth="14" markerHeight="10" refX="10" refY="5" viewBox="0 0 14 10" orient="auto" markerUnits="userSpaceOnUse" stroke-dasharray="0,0"><path id="SvgjsPath1039" d="M0,0 L14,5 L0,10 L0,0" fill="#f44336" stroke="#f44336" stroke-width="1"></path></marker><marker id="SvgjsMarker1042" markerWidth="14" markerHeight="10" refX="10" refY="5" viewBox="0 0 14 10" orient="auto" markerUnits="userSpaceOnUse" stroke-dasharray="0,0"><path id="SvgjsPath1043" d="M0,0 L14,5 L0,10 L0,0" fill="#f44336" stroke="#f44336" stroke-width="1"></path></marker><marker id="SvgjsMarker1074" markerWidth="14" markerHeight="10" refX="10" refY="5" viewBox="0 0 14 10" orient="auto" markerUnits="userSpaceOnUse" stroke-dasharray="0,0"><path id="SvgjsPath1075" d="M0,0 L14,5 L0,10 L0,0" fill="#f44336" stroke="#f44336" stroke-width="1"></path></marker><marker id="SvgjsMarker1078" markerWidth="14" markerHeight="10" refX="10" refY="5" viewBox="0 0 14 10" orient="auto" markerUnits="userSpaceOnUse" stroke-dasharray="0,0"><path id="SvgjsPath1079" d="M0,0 L14,5 L0,10 L0,0" fill="#f44336" stroke="#f44336" stroke-width="1"></path></marker><marker id="SvgjsMarker1088" markerWidth="14" markerHeight="10" refX="10" refY="5" viewBox="0 0 14 10" orient="auto" markerUnits="userSpaceOnUse" stroke-dasharray="0,0"><path id="SvgjsPath1089" d="M0,0 L14,5 L0,10 L0,0" fill="#f44336" stroke="#f44336" stroke-width="1"></path></marker><marker id="SvgjsMarker1108" markerWidth="14" markerHeight="10" refX="10" refY="5" viewBox="0 0 14 10" orient="auto" markerUnits="userSpaceOnUse" stroke-dasharray="0,0"><path id="SvgjsPath1109" d="M0,0 L14,5 L0,10 L0,0" fill="#f44336" stroke="#f44336" stroke-width="1"></path></marker><marker id="SvgjsMarker1116" markerWidth="14" markerHeight="10" refX="10" refY="5" viewBox="0 0 14 10" orient="auto" markerUnits="userSpaceOnUse" stroke-dasharray="0,0"><path id="SvgjsPath1117" d="M0,0 L14,5 L0,10 L0,0" fill="#f44336" stroke="#f44336" stroke-width="1"></path></marker></defs><g id="SvgjsG1008" transform="translate(32.5113525390625,77.00909042358398)"><path id="SvgjsPath1009" d="M 0 4Q 0 0 4 0L 101 0Q 105 0 105 4L 105 32Q 105 36 101 36L 4 36Q 0 36 0 32Z" stroke="rgba(244,67,54,1)" stroke-width="2" fill-opacity="1" fill="#f5927b"></path><g id="SvgjsG1010"><text id="SvgjsText1011" font-family="Arial" text-anchor="middle" font-size="13px" width="85px" fill="#323232" font-weight="400" align="middle" lineHeight="125%" anchor="middle" family="Arial" size="13px" weight="400" font-style="" opacity="1" y="7.375" transform="rotate(0)"><tspan id="SvgjsTspan1012" dy="16" x="52.5"><tspan id="SvgjsTspan1013" style="text-decoration:;">开始执行</tspan></tspan></text></g></g><g id="SvgjsG1014" transform="translate(25.0113525390625,25.00908279418944)"><path id="SvgjsPath1015" d="M 0 0L 120 0L 120 40L 0 40Z" stroke="none" fill="none"></path><g id="SvgjsG1016"><text id="SvgjsText1017" font-family="Arial" text-anchor="middle" font-size="13px" width="120px" fill="#323232" font-weight="400" align="middle" lineHeight="125%" anchor="middle" family="Arial" size="13px" weight="400" font-style="" opacity="1" y="9.375" transform="rotate(0)"><tspan id="SvgjsTspan1018" dy="16" x="60"><tspan id="SvgjsTspan1019" style="text-decoration:;">JS的执行顺序</tspan></tspan></text></g></g><g id="SvgjsG1020" transform="translate(35.0113525390625,185.00909042358398)"><path id="SvgjsPath1021" d="M 0 4Q 0 0 4 0L 96 0Q 100 0 100 4L 100 32Q 100 36 96 36L 4 36Q 0 36 0 32Z" stroke="rgba(244,67,54,1)" stroke-width="2" fill-opacity="1" fill="#f5927b"></path><g id="SvgjsG1022"><text id="SvgjsText1023" font-family="Arial" text-anchor="middle" font-size="13px" width="80px" fill="#323232" font-weight="400" align="middle" lineHeight="125%" anchor="middle" family="Arial" size="13px" weight="400" font-style="" opacity="1" y="7.375" transform="rotate(0)"><tspan id="SvgjsTspan1024" dy="16" x="50"><tspan id="SvgjsTspan1025" style="text-decoration:;">逐行执行代码</tspan></tspan></text></g></g><g id="SvgjsG1026" transform="translate(32.5113525390625,274.009090423584)"><path id="SvgjsPath1027" d="M 0 4Q 0 0 4 0L 101 0Q 105 0 105 4L 105 32Q 105 36 101 36L 4 36Q 0 36 0 32Z" stroke="rgba(244,67,54,1)" stroke-width="2" fill-opacity="1" fill="#f5927b"></path><g id="SvgjsG1028"><text id="SvgjsText1029" font-family="Arial" text-anchor="middle" font-size="13px" width="85px" fill="#323232" font-weight="400" align="middle" lineHeight="125%" anchor="middle" family="Arial" size="13px" weight="400" font-style="" opacity="1" y="7.375" transform="rotate(0)"><tspan id="SvgjsTspan1030" dy="16" x="52.5"><tspan id="SvgjsTspan1031" style="text-decoration:;">遇到异步操作</tspan></tspan></text></g></g><g id="SvgjsG1032" transform="translate(343.82953435724437,131.9090919494629)"><path id="SvgjsPath1033" d="M 0 0L 316.3636363636364 0L 316.3636363636364 83L 0 83Z" stroke="rgba(244,67,54,1)" stroke-width="2" fill-opacity="1" fill="#f5927b"></path><g id="SvgjsG1034"><text id="SvgjsText1035" font-family="Arial" text-anchor="middle" font-size="13px" width="297px" fill="#323232" font-weight="400" align="middle" lineHeight="125%" anchor="middle" family="Arial" size="13px" weight="400" font-style="" opacity="1" y="30.875" transform="rotate(0)"></text></g></g><g id="SvgjsG1036"><path id="SvgjsPath1037" d="M85.0113525390625 114.00909042358398L85.0113525390625 147.50909042358398L85.0113525390625 147.50909042358398L85.0113525390625 181.409090423584" stroke="#f44336" stroke-width="2" fill="none" marker-end="url(#SvgjsMarker1038)"></path></g><g id="SvgjsG1040"><path id="SvgjsPath1041" d="M85.0113525390625 222.00909042358398L85.0113525390625 246.00909042358398L85.0113525390625 246.00909042358398L85.0113525390625 270.40909042358396" stroke="#f44336" stroke-width="2" fill="none" marker-end="url(#SvgjsMarker1042)"></path></g><g id="SvgjsG1044" transform="translate(371.05680708451627,138.4090919494629)"><path id="SvgjsPath1045" d="M 0 0L 67 0L 67 70L 0 70Z" stroke="rgba(244,67,54,1)" stroke-width="2" fill-opacity="1" fill="#f5927b"></path><g id="SvgjsG1046"><text id="SvgjsText1047" font-family="Arial" text-anchor="middle" font-size="13px" width="47px" fill="#323232" font-weight="400" align="middle" lineHeight="125%" anchor="middle" family="Arial" size="13px" weight="400" font-style="" opacity="1" y="15.875" transform="rotate(0)"><tspan id="SvgjsTspan1048" dy="16" x="33.5"><tspan id="SvgjsTspan1049" style="text-decoration:;">微任务</tspan></tspan><tspan id="SvgjsTspan1050" dy="16" x="33.5"><tspan id="SvgjsTspan1051" style="text-decoration:;">队列</tspan></tspan></text></g></g><g id="SvgjsG1052" transform="translate(561.7931615656059,138.4090919494629)"><path id="SvgjsPath1053" d="M 0 0L 67 0L 67 70L 0 70Z" stroke="rgba(244,67,54,1)" stroke-width="2" fill-opacity="1" fill="#f5927b"></path><g id="SvgjsG1054"><text id="SvgjsText1055" font-family="Arial" text-anchor="middle" font-size="13px" width="47px" fill="#323232" font-weight="400" align="middle" lineHeight="125%" anchor="middle" family="Arial" size="13px" weight="400" font-style="" opacity="1" y="15.875" transform="rotate(0)"><tspan id="SvgjsTspan1056" dy="16" x="33.5"><tspan id="SvgjsTspan1057" style="text-decoration:;">宏任务</tspan></tspan><tspan id="SvgjsTspan1058" dy="16" x="33.5"><tspan id="SvgjsTspan1059" style="text-decoration:;">队列</tspan></tspan></text></g></g><g id="SvgjsG1060" transform="translate(455.2688598632809,155.4090919494629)"><path id="SvgjsPath1061" d="M 0 0L 93.48498535156307 0L 93.48498535156307 36L 0 36Z" stroke="none" fill="none"></path><g id="SvgjsG1062"><text id="SvgjsText1063" font-family="Arial" text-anchor="middle" font-size="13px" width="94px" fill="#323232" font-weight="400" align="middle" lineHeight="125%" anchor="middle" family="Arial" size="13px" weight="400" font-style="" opacity="1" y="7.375" transform="rotate(0)"><tspan id="SvgjsTspan1064" dy="16" x="47"><tspan id="SvgjsTspan1065" style="text-decoration:;">异步队列</tspan></tspan></text></g></g><g id="SvgjsG1066" transform="translate(32.5113525390625,367.009090423584)"><path id="SvgjsPath1067" d="M 0 4Q 0 0 4 0L 101 0Q 105 0 105 4L 105 32Q 105 36 101 36L 4 36Q 0 36 0 32Z" stroke="rgba(244,67,54,1)" stroke-width="2" fill-opacity="1" fill="#f5927b"></path><g id="SvgjsG1068"><text id="SvgjsText1069" font-family="Arial" text-anchor="middle" font-size="13px" width="85px" fill="#323232" font-weight="400" align="middle" lineHeight="125%" anchor="middle" family="Arial" size="13px" weight="400" font-style="" opacity="1" y="7.375" transform="rotate(0)"><tspan id="SvgjsTspan1070" dy="16" x="52.5"><tspan id="SvgjsTspan1071" style="text-decoration:;">执行完毕</tspan></tspan></text></g></g><g id="SvgjsG1072"><path id="SvgjsPath1073" d="M85.0113525390625 311.009090423584L85.0113525390625 338.009090423584L85.0113525390625 338.009090423584L85.0113525390625 363.40909042358396" stroke="#f44336" stroke-width="2" fill="none" marker-end="url(#SvgjsMarker1074)"></path></g><g id="SvgjsG1076"><path id="SvgjsPath1077" d="M138.5113525390625 292.009090423584L502.0113525390618 292.009090423584L502.0113525390618 218.5090919494629" stroke="#f44336" stroke-width="2" fill="none" marker-end="url(#SvgjsMarker1078)"></path></g><g id="SvgjsG1080" transform="translate(287.4354580965908,250.61467058008355)"><path id="SvgjsPath1081" d="M 0 0L 199.72133983265272 0L 199.72133983265272 36L 0 36Z" stroke="none" fill="none"></path><g id="SvgjsG1082"><text id="SvgjsText1083" font-family="Arial" text-anchor="middle" font-size="13px" width="200px" fill="#323232" font-weight="400" align="middle" lineHeight="125%" anchor="middle" family="Arial" size="13px" weight="400" font-style="" opacity="1" y="7.375" transform="rotate(0)"><tspan id="SvgjsTspan1084" dy="16" x="100"><tspan id="SvgjsTspan1085" style="text-decoration:;">异步操作的内容添加到对应的队列</tspan></tspan></text></g></g><g id="SvgjsG1086"><path id="SvgjsPath1087" d="M138.5113525390625 385.009090423584L686.5263671874991 385.009090423584L686.5263671874991 173.4090919494629L663.7931707208808 173.4090919494629" stroke="#f44336" stroke-width="2" fill="none" marker-end="url(#SvgjsMarker1088)"></path></g><g id="SvgjsG1090" transform="translate(406.63249622691757,346.7727283130991)"><path id="SvgjsPath1091" d="M 0 0L 190.75771262428978 0L 190.75771262428978 36L 0 36Z" stroke="none" fill="none"></path><g id="SvgjsG1092"><text id="SvgjsText1093" font-family="Arial" text-anchor="middle" font-size="13px" width="191px" fill="#323232" font-weight="400" align="middle" lineHeight="125%" anchor="middle" family="Arial" size="13px" weight="400" font-style="" opacity="1" y="7.375" transform="rotate(0)"><tspan id="SvgjsTspan1094" dy="16" x="95.5"><tspan id="SvgjsTspan1095" style="text-decoration:;">询问异步队列有没有任务</tspan></tspan></text></g></g><g id="SvgjsG1096" transform="translate(164.0113525390625,25.009082794189453)"><path id="SvgjsPath1097" d="M 0 0L 179 0L 179 62.00000762939453L 0 62.00000762939453Z" stroke="none" fill="none"></path><g id="SvgjsG1098"><text id="SvgjsText1099" font-family="Arial" text-anchor="middle" font-size="13px" width="179px" fill="#323232" font-weight="400" align="middle" lineHeight="125%" anchor="middle" family="Arial" size="13px" weight="400" font-style="" opacity="1" y="3.8750038146972656" transform="rotate(0)"><tspan id="SvgjsTspan1100" dy="16" x="89.5"><tspan id="SvgjsTspan1101" style="text-decoration:;">异步任务回调，回到主任务执</tspan></tspan><tspan id="SvgjsTspan1102" dy="16" x="89.5"><tspan id="SvgjsTspan1103" style="text-decoration:;">行，在执行下一个宏任务之</tspan></tspan><tspan id="SvgjsTspan1104" dy="16" x="89.5"><tspan id="SvgjsTspan1105" style="text-decoration:;">前，会确保微任务队列为空</tspan></tspan></text></g></g><g id="SvgjsG1106"><path id="SvgjsPath1107" d="M502.0113525390618 130.9090919494629L502.0113525390618 95.86363740400836L711.564314408735 95.86363740400836L711.564314408735 432.009090423584L85.0113525390625 432.009090423584L85.0113525390625 406.609090423584" stroke="#f44336" stroke-width="2" fill="none" marker-end="url(#SvgjsMarker1108)"></path><rect id="SvgjsRect1110" width="26" height="16" x="662.9597681912503" y="424.009090423584" fill="#ffffff"></rect><text id="SvgjsText1111" font-family="Arial" text-anchor="middle" font-size="13px" width="26px" fill="#323232" font-weight="400" align="top" lineHeight="16px" anchor="middle" family="Arial" size="13px" weight="400" font-style="" opacity="1" y="421.384090423584" transform="rotate(0)"><tspan id="SvgjsTspan1112" dy="16" x="675.9597681912503"><tspan id="SvgjsTspan1113" style="text-decoration:;">没有</tspan></tspan></text></g><g id="SvgjsG1114"><path id="SvgjsPath1115" d="M502.0113525390618 130.9090919494629L502.0113525390618 95.00909042358398L141.1113525390625 95.00909042358398" stroke="#f44336" stroke-width="2" fill="none" marker-end="url(#SvgjsMarker1116)"></path><rect id="SvgjsRect1118" width="13" height="16" x="333.0113533020017" y="87.00909042358398" fill="#ffffff"></rect><text id="SvgjsText1119" font-family="Arial" text-anchor="middle" font-size="13px" width="13px" fill="#323232" font-weight="400" align="top" lineHeight="16px" anchor="middle" family="Arial" size="13px" weight="400" font-style="" opacity="1" y="84.38409042358398" transform="rotate(0)"><tspan id="SvgjsTspan1120" dy="16" x="339.5113533020017"><tspan id="SvgjsTspan1121" style="text-decoration:;">有</tspan></tspan></text></g></svg>